<svg width="6" height="7" viewBox="0 0 6 7" fill="none" xmlns="http://www.w3.org/2000/svg">
<path d="M0.5 3.5C0.5 3.1717 0.564664 2.84661 0.690301 2.54329C0.815938 2.23998 1.00009 1.96438 1.23223 1.73223C1.46438 1.50009 1.73998 1.31594 2.04329 1.1903C2.34661 1.06466 2.6717 1 3 1C3.3283 1 3.65339 1.06466 3.95671 1.1903C4.26002 1.31594 4.53562 1.50009 4.76777 1.73223C4.99991 1.96438 5.18406 2.23998 5.3097 2.54329C5.43534 2.84661 5.5 3.1717 5.5 3.5C5.5 3.8283 5.43534 4.15339 5.3097 4.45671C5.18406 4.76002 4.99991 5.03562 4.76777 5.26777C4.53562 5.49991 4.26002 5.68406 3.95671 5.8097C3.65339 5.93534 3.3283 6 3 6C2.6717 6 2.34661 5.93534 2.04329 5.8097C1.73998 5.68406 1.46438 5.49991 1.23223 5.26777C1.00009 5.03562 0.815938 4.76002 0.690301 4.45671C0.564664 4.15339 0.5 3.8283 0.5 3.5V3.5Z" stroke="white" stroke-linecap="round" stroke-linejoin="round"/>
</svg>
