<svg width="25" height="24" viewBox="0 0 25 24" fill="none" xmlns="http://www.w3.org/2000/svg">
<path d="M7.5 6.5C7.5 5.83696 7.76339 5.20107 8.23223 4.73223C8.70107 4.26339 9.33696 4 10 4H12.5V9H10C9.33696 9 8.70107 8.73661 8.23223 8.26777C7.76339 7.79893 7.5 7.16304 7.5 6.5Z" stroke="white" stroke-linecap="round" stroke-linejoin="round"/>
<path d="M12.5 4H15C15.3283 4 15.6534 4.06466 15.9567 4.1903C16.26 4.31594 16.5356 4.50009 16.7678 4.73223C16.9999 4.96438 17.1841 5.23998 17.3097 5.54329C17.4353 5.84661 17.5 6.1717 17.5 6.5C17.5 6.8283 17.4353 7.15339 17.3097 7.45671C17.1841 7.76002 16.9999 8.03562 16.7678 8.26777C16.5356 8.49991 16.26 8.68406 15.9567 8.8097C15.6534 8.93534 15.3283 9 15 9H12.5V4Z" stroke="white" stroke-linecap="round" stroke-linejoin="round"/>
<path d="M12.5 11.5C12.5 11.1717 12.5647 10.8466 12.6903 10.5433C12.8159 10.24 13.0001 9.96438 13.2322 9.73223C13.4644 9.50009 13.74 9.31594 14.0433 9.1903C14.3466 9.06466 14.6717 9 15 9C15.3283 9 15.6534 9.06466 15.9567 9.1903C16.26 9.31594 16.5356 9.50009 16.7678 9.73223C16.9999 9.96438 17.1841 10.24 17.3097 10.5433C17.4353 10.8466 17.5 11.1717 17.5 11.5C17.5 11.8283 17.4353 12.1534 17.3097 12.4567C17.1841 12.76 16.9999 13.0356 16.7678 13.2678C16.5356 13.4999 16.26 13.6841 15.9567 13.8097C15.6534 13.9353 15.3283 14 15 14C14.6717 14 14.3466 13.9353 14.0433 13.8097C13.74 13.6841 13.4644 13.4999 13.2322 13.2678C13.0001 13.0356 12.8159 12.76 12.6903 12.4567C12.5647 12.1534 12.5 11.8283 12.5 11.5V11.5Z" stroke="white" stroke-linecap="round" stroke-linejoin="round"/>
<path d="M7.5 16.5C7.5 15.837 7.76339 15.2011 8.23223 14.7322C8.70107 14.2634 9.33696 14 10 14H12.5V16.5C12.5 17.163 12.2366 17.7989 11.7678 18.2678C11.2989 18.7366 10.663 19 10 19C9.33696 19 8.70107 18.7366 8.23223 18.2678C7.76339 17.7989 7.5 17.163 7.5 16.5Z" stroke="white" stroke-linecap="round" stroke-linejoin="round"/>
<path d="M7.5 11.5C7.5 10.837 7.76339 10.2011 8.23223 9.73223C8.70107 9.26339 9.33696 9 10 9H12.5V14H10C9.33696 14 8.70107 13.7366 8.23223 13.2678C7.76339 12.7989 7.5 12.163 7.5 11.5Z" stroke="white" stroke-linecap="round" stroke-linejoin="round"/>
</svg>
