<svg width="17" height="16" viewBox="0 0 17 16" fill="none" xmlns="http://www.w3.org/2000/svg">
<path d="M16.2214 9.64691L8.48505 15L0.748677 9.64691C0.644962 9.57429 0.56803 9.4723 0.528887 9.35553C0.489744 9.23875 0.490396 9.11319 0.530751 8.99679L1.41698 6.38249L3.18945 1.18847C3.20664 1.14615 3.23401 1.10825 3.26935 1.07781C3.32691 1.02776 3.40206 1 3.48001 1C3.55797 1 3.63312 1.02776 3.69068 1.07781C3.728 1.11216 3.7555 1.15501 3.77058 1.2023L5.54305 6.38249H11.427L13.1995 1.18847C13.2167 1.14615 13.2441 1.10825 13.2794 1.07781C13.337 1.02776 13.4121 1 13.4901 1C13.568 1 13.6432 1.02776 13.7007 1.07781C13.7381 1.11216 13.7656 1.15501 13.7806 1.2023L15.5531 6.39632L16.4757 8.99679C16.5124 9.11678 16.5074 9.24483 16.4616 9.36195C16.4158 9.47906 16.3316 9.57899 16.2214 9.64691V9.64691Z" stroke="white" stroke-linecap="round" stroke-linejoin="round"/>
</svg>
