<svg width="16" height="18" viewBox="0 0 16 18" fill="none" xmlns="http://www.w3.org/2000/svg">
<path d="M11.2692 17V14.0552C11.2981 13.6923 11.2485 13.3276 11.1239 12.9852C10.9992 12.6427 10.8023 12.3305 10.5462 12.0691C12.9615 11.8028 15.5 10.8973 15.5 6.74261C15.4998 5.68022 15.0867 4.65856 14.3462 3.88911C14.6968 2.95963 14.672 1.93225 14.2769 1.02039C14.2769 1.02039 13.3692 0.754061 11.2692 2.14657C9.50616 1.67389 7.64769 1.67389 5.88462 2.14657C3.78462 0.754061 2.87692 1.02039 2.87692 1.02039C2.48183 1.93225 2.45703 2.95963 2.80769 3.88911C2.06164 4.66427 1.64809 5.69516 1.65385 6.76544C1.65385 10.8897 4.19231 11.7952 6.60769 12.092C6.35461 12.3507 6.15943 12.6592 6.03485 12.9974C5.91027 13.3357 5.85908 13.6961 5.88462 14.0552V17M5.88462 14.7172C2.03846 15.8586 2.03846 12.8149 0.5 12.4344L5.88462 14.7172Z" stroke="white" stroke-linecap="round" stroke-linejoin="round"/>
</svg>
