<svg width="17" height="17" viewBox="0 0 17 17" fill="none" xmlns="http://www.w3.org/2000/svg">
<path fill-rule="evenodd" clip-rule="evenodd" d="M4.76748 1C2.9629 1 1.5 2.4629 1.5 4.26748V11.8024C1.5 13.607 2.9629 15.0699 4.76748 15.0699H12.3024C14.107 15.0699 15.5699 13.607 15.5699 11.8024V4.26748C15.5699 2.4629 14.107 1 12.3024 1H4.76748ZM0.5 4.26748C0.5 1.91062 2.41062 0 4.76748 0H12.3024C14.6593 0 16.5699 1.91062 16.5699 4.26748V11.8024C16.5699 14.1593 14.6593 16.0699 12.3024 16.0699H4.76748C2.41062 16.0699 0.5 14.1593 0.5 11.8024V4.26748ZM8.93643 5.51543C8.41337 5.43786 7.87916 5.52721 7.4098 5.77075C6.94044 6.01429 6.55983 6.39963 6.32209 6.87196C6.08436 7.34428 6.00161 7.87955 6.08562 8.40161C6.16962 8.92368 6.41611 9.40597 6.79002 9.77987C7.16392 10.1538 7.64621 10.4003 8.16827 10.4843C8.69034 10.5683 9.22561 10.4855 9.69793 10.2478C10.1703 10.0101 10.5556 9.62944 10.7991 9.16008C11.0427 8.69072 11.132 8.15652 11.0545 7.63346C10.9753 7.09991 10.7267 6.60596 10.3453 6.22456C9.96393 5.84316 9.46997 5.59454 8.93643 5.51543ZM6.94923 4.88312C7.60529 4.54271 8.35199 4.41783 9.08311 4.52624C9.82889 4.63683 10.5193 4.98435 11.0524 5.51746C11.5855 6.05056 11.9331 6.741 12.0436 7.48677C12.1521 8.2179 12.0272 8.96459 11.6868 9.62065C11.3463 10.2767 10.8077 10.8087 10.1475 11.141C9.48732 11.4733 8.73914 11.589 8.0094 11.4716C7.27967 11.3541 6.60555 11.0096 6.08291 10.487C5.56027 9.96434 5.21574 9.29022 5.09832 8.56048C4.98089 7.83075 5.09656 7.08257 5.42886 6.42237C5.76116 5.76216 6.29317 5.22354 6.94923 4.88312ZM12.6792 3.39074C12.403 3.39074 12.1792 3.6146 12.1792 3.89074C12.1792 4.16688 12.403 4.39074 12.6792 4.39074H12.6878C12.964 4.39074 13.1878 4.16688 13.1878 3.89074C13.1878 3.6146 12.964 3.39074 12.6878 3.39074H12.6792Z" fill="white"/>
</svg>
