<svg width="184" height="48" viewBox="0 0 184 48" fill="none" xmlns="http://www.w3.org/2000/svg">
<path d="M16.3811 33.4287C25.0599 33.4287 32.0954 26.3932 32.0954 17.7144C32.0954 16.7308 32.005 15.7683 31.8322 14.8348C30.8986 14.6619 29.9362 14.5715 28.9526 14.5715C20.2738 14.5715 13.2383 21.6071 13.2383 30.2858C13.2383 31.2694 13.3286 32.2319 13.5015 33.1654C14.4351 33.3383 15.3975 33.4287 16.3811 33.4287Z" fill="#175CD3"/>
<path fill-rule="evenodd" clip-rule="evenodd" d="M13.5017 33.1653C6.19817 31.8127 0.666992 25.4095 0.666992 17.7143C0.666992 9.03553 7.70252 2 16.3813 2C24.0765 2 30.4797 7.53118 31.8323 14.8347C30.8988 14.6618 29.9363 14.5714 28.9527 14.5714C20.274 14.5714 13.2384 21.607 13.2384 30.2857C13.2384 31.2693 13.3288 32.2318 13.5017 33.1653Z" fill="#1570EF"/>
<path fill-rule="evenodd" clip-rule="evenodd" d="M16.3816 33.4286C25.0603 33.4286 32.0958 26.3931 32.0958 17.7143C32.0958 16.7307 32.0055 15.7682 31.8326 14.8347C39.1361 16.1873 44.6673 22.5906 44.6673 30.2858C44.6673 38.9645 37.6318 46 28.953 46C21.2578 46 14.8545 40.4689 13.502 33.1654C14.4355 33.3382 15.398 33.4286 16.3816 33.4286Z" fill="#2E90FA"/>
<path d="M74.8954 28.9039C74.3354 30.7146 73.3554 32.0679 71.9554 32.9639C70.5554 33.8413 68.922 34.2799 67.0554 34.2799C65.226 34.2799 63.6394 33.8973 62.2954 33.1319C60.97 32.3666 59.9434 31.2746 59.2154 29.8559C58.506 28.4373 58.1514 26.7386 58.1514 24.7599C58.1514 22.7813 58.5154 21.0826 59.2434 19.6639C59.9714 18.2453 60.998 17.1533 62.3234 16.3879C63.6487 15.6226 65.2074 15.2399 66.9994 15.2399C68.8847 15.2399 70.4994 15.6413 71.8434 16.4439C73.206 17.2279 74.1394 18.4226 74.6434 20.0279L71.1434 21.5119C70.826 20.3919 70.3407 19.5986 69.6874 19.1319C69.034 18.6466 68.194 18.4039 67.1674 18.4039C65.6367 18.4039 64.414 18.9546 63.4994 20.0559C62.6034 21.1386 62.1554 22.7066 62.1554 24.7599C62.1554 26.7946 62.5847 28.3626 63.4434 29.4639C64.302 30.5653 65.5434 31.1159 67.1674 31.1159C68.1754 31.1159 69.0434 30.8453 69.7714 30.3039C70.518 29.7626 71.0407 28.9413 71.3394 27.8399L74.8954 28.9039Z" fill="white"/>
<path d="M79.7286 17.9839C78.142 17.9839 77.3486 17.3026 77.3486 15.9399C77.3486 14.5586 78.142 13.8679 79.7286 13.8679C81.3153 13.8679 82.1086 14.5586 82.1086 15.9399C82.1086 17.3026 81.3153 17.9839 79.7286 17.9839ZM81.6326 19.9999V33.9999H77.7966V19.9999H81.6326Z" fill="white"/>
<path d="M85.699 33.9999V19.9999H89.031L89.283 22.7439C89.6377 21.7919 90.1697 21.0546 90.879 20.5319C91.607 19.9906 92.5217 19.7199 93.623 19.7199C94.2763 19.7199 94.7803 19.8226 95.135 20.0279L94.687 23.2479C94.5003 23.1919 94.267 23.1453 93.987 23.1079C93.7257 23.0519 93.3803 23.0239 92.951 23.0239C92.3723 23.0239 91.8217 23.1639 91.299 23.4439C90.795 23.7053 90.375 24.1159 90.039 24.6759C89.703 25.2173 89.535 25.9079 89.535 26.7479V33.9999H85.699Z" fill="white"/>
<path d="M103.594 19.7199C105.461 19.7199 106.907 20.1213 107.934 20.9239C108.979 21.7266 109.67 22.6973 110.006 23.8359L106.422 25.1239C106.049 23.4253 105.125 22.5759 103.65 22.5759C102.586 22.5759 101.755 22.9493 101.158 23.6959C100.579 24.4426 100.29 25.5533 100.29 27.0279C100.29 28.5213 100.589 29.6319 101.186 30.3599C101.802 31.0693 102.633 31.4239 103.678 31.4239C105.302 31.4239 106.273 30.5933 106.59 28.9319L110.062 30.0519C109.745 31.3026 109.035 32.3199 107.934 33.1039C106.851 33.8879 105.442 34.2799 103.706 34.2799C102.25 34.2799 100.971 33.9906 99.87 33.4119C98.7874 32.8333 97.9474 32.0026 97.35 30.9199C96.7527 29.8373 96.454 28.5306 96.454 26.9999C96.454 25.4693 96.7527 24.1626 97.35 23.0799C97.966 21.9973 98.806 21.1666 99.87 20.5879C100.953 20.0093 102.194 19.7199 103.594 19.7199Z" fill="white"/>
<path d="M119.427 19.7199C120.827 19.7199 122.068 20.0093 123.151 20.5879C124.233 21.1666 125.073 21.9973 125.671 23.0799C126.287 24.1626 126.595 25.4693 126.595 26.9999C126.595 28.5306 126.287 29.8373 125.671 30.9199C125.073 32.0026 124.233 32.8333 123.151 33.4119C122.068 33.9906 120.827 34.2799 119.427 34.2799C118.008 34.2799 116.757 33.9906 115.675 33.4119C114.611 32.8333 113.771 32.0026 113.155 30.9199C112.557 29.8373 112.259 28.5306 112.259 26.9999C112.259 25.4693 112.557 24.1626 113.155 23.0799C113.771 21.9973 114.611 21.1666 115.675 20.5879C116.757 20.0093 118.008 19.7199 119.427 19.7199ZM119.427 22.5759C118.381 22.5759 117.56 22.9493 116.963 23.6959C116.384 24.4239 116.095 25.5253 116.095 26.9999C116.095 28.4746 116.384 29.5853 116.963 30.3319C117.56 31.0599 118.381 31.4239 119.427 31.4239C120.453 31.4239 121.256 31.0599 121.835 30.3319C122.432 29.5853 122.731 28.4746 122.731 26.9999C122.731 25.5253 122.432 24.4239 121.835 23.6959C121.256 22.9493 120.453 22.5759 119.427 22.5759Z" fill="white"/>
<path d="M136.188 19.7199C137.588 19.7199 138.83 20.0093 139.912 20.5879C140.995 21.1666 141.835 21.9973 142.432 23.0799C143.048 24.1626 143.356 25.4693 143.356 26.9999C143.356 28.5306 143.048 29.8373 142.432 30.9199C141.835 32.0026 140.995 32.8333 139.912 33.4119C138.83 33.9906 137.588 34.2799 136.188 34.2799C134.77 34.2799 133.519 33.9906 132.436 33.4119C131.372 32.8333 130.532 32.0026 129.916 30.9199C129.319 29.8373 129.02 28.5306 129.02 26.9999C129.02 25.4693 129.319 24.1626 129.916 23.0799C130.532 21.9973 131.372 21.1666 132.436 20.5879C133.519 20.0093 134.77 19.7199 136.188 19.7199ZM136.188 22.5759C135.143 22.5759 134.322 22.9493 133.724 23.6959C133.146 24.4239 132.856 25.5253 132.856 26.9999C132.856 28.4746 133.146 29.5853 133.724 30.3319C134.322 31.0599 135.143 31.4239 136.188 31.4239C137.215 31.4239 138.018 31.0599 138.596 30.3319C139.194 29.5853 139.492 28.4746 139.492 26.9999C139.492 25.5253 139.194 24.4239 138.596 23.6959C138.018 22.9493 137.215 22.5759 136.188 22.5759Z" fill="white"/>
<path d="M150.346 13.8679V29.6879C150.346 30.3413 150.458 30.7986 150.682 31.0599C150.906 31.3213 151.279 31.4519 151.802 31.4519C152.119 31.4519 152.381 31.4333 152.586 31.3959C152.791 31.3586 153.053 31.2839 153.37 31.1719L153.034 33.6919C152.717 33.8786 152.315 34.0186 151.83 34.1119C151.363 34.2239 150.897 34.2799 150.43 34.2799C149.067 34.2799 148.069 33.9533 147.434 33.2999C146.818 32.6279 146.51 31.5639 146.51 30.1079V13.8679H150.346Z" fill="white"/>
<path d="M162.004 34.2799C159.801 34.2799 158.037 33.6453 156.712 32.3759C155.386 31.0879 154.724 29.2959 154.724 26.9999C154.724 25.4693 155.022 24.1626 155.62 23.0799C156.217 21.9973 157.048 21.1666 158.112 20.5879C159.194 20.0093 160.426 19.7199 161.808 19.7199C163.226 19.7199 164.43 20.0093 165.42 20.5879C166.409 21.1479 167.165 21.9226 167.688 22.9119C168.21 23.8826 168.472 24.9933 168.472 26.2439C168.472 26.6173 168.462 26.9719 168.444 27.3079C168.425 27.6439 168.397 27.9426 168.36 28.2039H158.476C158.625 29.2866 158.998 30.0986 159.596 30.6399C160.212 31.1626 161.005 31.4239 161.976 31.4239C162.797 31.4239 163.46 31.2653 163.964 30.9479C164.468 30.6306 164.86 30.1919 165.14 29.6319L168.192 30.8079C167.744 31.9093 166.96 32.7679 165.84 33.3839C164.72 33.9813 163.441 34.2799 162.004 34.2799ZM161.78 22.5479C159.969 22.5479 158.877 23.5466 158.504 25.5439H164.804C164.692 24.5733 164.374 23.8359 163.852 23.3319C163.348 22.8093 162.657 22.5479 161.78 22.5479Z" fill="white"/>
<path d="M177.322 34.2799C175.904 34.2799 174.606 34.0279 173.43 33.5239C172.273 33.0199 171.33 32.3106 170.602 31.3959L172.814 29.1559C173.262 29.8279 173.86 30.3786 174.606 30.8079C175.353 31.2373 176.24 31.4519 177.266 31.4519C177.994 31.4519 178.573 31.3493 179.002 31.1439C179.45 30.9199 179.674 30.5746 179.674 30.1079C179.674 29.8093 179.572 29.5573 179.366 29.3519C179.161 29.1279 178.75 28.9506 178.134 28.8199L175.67 28.3159C174.046 27.9799 172.889 27.4759 172.198 26.8039C171.526 26.1133 171.19 25.2266 171.19 24.1439C171.19 23.3786 171.414 22.6599 171.862 21.9879C172.329 21.3159 173.02 20.7746 173.934 20.3639C174.849 19.9346 175.988 19.7199 177.35 19.7199C180.188 19.7199 182.222 20.5879 183.454 22.3239L181.158 24.5639C180.748 23.9106 180.206 23.4159 179.534 23.0799C178.881 22.7253 178.19 22.5479 177.462 22.5479C175.82 22.5479 174.998 23.0053 174.998 23.9199C174.998 24.2186 175.129 24.4799 175.39 24.7039C175.652 24.9093 176.128 25.0866 176.818 25.2359L179.674 25.8239C181.056 26.1039 182.045 26.5799 182.642 27.2519C183.24 27.9053 183.538 28.6986 183.538 29.6319C183.538 30.9759 182.997 32.0866 181.914 32.9639C180.85 33.8413 179.32 34.2799 177.322 34.2799Z" fill="white"/>
</svg>
