<svg width="161" height="48" viewBox="0 0 161 48" fill="none" xmlns="http://www.w3.org/2000/svg">
<path d="M22.333 2C10.1827 2 0.333008 11.8497 0.333008 24C0.333008 36.1503 10.1827 46 22.333 46C33.234 46 42.2832 38.0716 44.0288 27.6667H43.8709C42.2428 33.9925 36.5004 38.6667 29.6663 38.6667C21.5662 38.6667 14.9997 32.1002 14.9997 24C14.9997 15.8998 21.5662 9.33333 29.6663 9.33333C36.5004 9.33333 42.2428 14.0075 43.8709 20.3333H44.0288C42.2832 9.92838 33.234 2 22.333 2Z" fill="#A4BCFD"/>
<path d="M0.333008 24C0.333008 11.8497 10.1827 2 22.333 2C33.234 2 42.2832 9.92838 44.0288 20.3333H29.2043C27.5761 14.0075 21.8338 9.33333 14.9997 9.33333C6.8995 9.33333 0.333008 15.8998 0.333008 24Z" fill="#3538CD"/>
<path d="M0.333008 24C0.333008 36.1503 10.1827 46 22.333 46C33.234 46 42.2832 38.0716 44.0288 27.6667H29.2043C27.5761 33.9925 21.8338 38.6667 14.9997 38.6667C6.8995 38.6667 0.333008 32.1002 0.333008 24Z" fill="#3538CD"/>
<path d="M75.7717 20.5071C75.1452 15.9829 71.6651 13.3579 67.1509 13.3579C61.8313 13.3579 57.8242 17.2358 57.8242 23.8181C57.8242 30.3906 61.7816 34.2784 67.1509 34.2784C71.9932 34.2784 75.2049 31.1463 75.7717 27.2585L72.0529 27.2386C71.5856 29.625 69.6367 30.9673 67.2006 30.9673C63.8995 30.9673 61.533 28.4914 61.533 23.8181C61.533 19.2244 63.8796 16.669 67.2106 16.669C69.6864 16.669 71.6254 18.071 72.0529 20.5071H75.7717Z" fill="white"/>
<path d="M83.3856 34.3082C85.7819 34.3082 87.2138 33.1846 87.87 31.9019H87.9893V34H91.4496V23.7784C91.4496 19.7414 88.1584 18.5284 85.245 18.5284C82.0334 18.5284 79.5675 19.9602 78.772 22.7443L82.1328 23.2215C82.4908 22.1775 83.505 21.2826 85.2649 21.2826C86.9354 21.2826 87.8501 22.1377 87.8501 23.6392V23.6988C87.8501 24.7329 86.7663 24.7826 84.0717 25.071C81.1087 25.3892 78.2749 26.2741 78.2749 29.7144C78.2749 32.7173 80.4723 34.3082 83.3856 34.3082ZM84.3203 31.6633C82.8189 31.6633 81.745 30.9772 81.745 29.6548C81.745 28.2727 82.9481 27.696 84.5589 27.4673C85.5035 27.338 87.3927 27.0994 87.8601 26.7215V28.5213C87.8601 30.2215 86.4879 31.6633 84.3203 31.6633Z" fill="white"/>
<path d="M102.695 18.7272H99.6825V15.0681H96.0831V18.7272H93.9155V21.5113H96.0831V30.0028C96.0632 32.8764 98.1513 34.2883 100.856 34.2088C101.88 34.1789 102.586 33.9801 102.974 33.8508L102.367 31.0369C102.168 31.0866 101.761 31.1761 101.313 31.1761C100.408 31.1761 99.6825 30.8579 99.6825 29.4062V21.5113H102.695V18.7272Z" fill="white"/>
<path d="M110.1 34.3082C112.497 34.3082 113.929 33.1846 114.585 31.9019H114.704V34H118.164V23.7784C118.164 19.7414 114.873 18.5284 111.96 18.5284C108.748 18.5284 106.282 19.9602 105.487 22.7443L108.848 23.2215C109.206 22.1775 110.22 21.2826 111.98 21.2826C113.65 21.2826 114.565 22.1377 114.565 23.6392V23.6988C114.565 24.7329 113.481 24.7826 110.787 25.071C107.823 25.3892 104.99 26.2741 104.99 29.7144C104.99 32.7173 107.187 34.3082 110.1 34.3082ZM111.035 31.6633C109.534 31.6633 108.46 30.9772 108.46 29.6548C108.46 28.2727 109.663 27.696 111.274 27.4673C112.218 27.338 114.108 27.0994 114.575 26.7215V28.5213C114.575 30.2215 113.203 31.6633 111.035 31.6633Z" fill="white"/>
<path d="M125.383 13.6363H121.784V34H125.383V13.6363Z" fill="white"/>
<path d="M135.746 34.2983C140.221 34.2983 143.065 31.1463 143.065 26.4233C143.065 21.6903 140.221 18.5284 135.746 18.5284C131.272 18.5284 128.428 21.6903 128.428 26.4233C128.428 31.1463 131.272 34.2983 135.746 34.2983ZM135.766 31.4147C133.29 31.4147 132.077 29.2073 132.077 26.4133C132.077 23.6193 133.29 21.3821 135.766 21.3821C138.202 21.3821 139.415 23.6193 139.415 26.4133C139.415 29.2073 138.202 31.4147 135.766 31.4147Z" fill="white"/>
<path d="M152.762 40.0454C156.888 40.0454 159.931 38.1562 159.931 34.2485V18.7272H156.381V21.2528H156.182C155.635 20.1491 154.492 18.5284 151.797 18.5284C148.267 18.5284 145.493 21.2926 145.493 26.3139C145.493 31.2954 148.267 33.7812 151.787 33.7812C154.402 33.7812 155.625 32.3792 156.182 31.2556H156.361V34.1491C156.361 36.3963 154.87 37.321 152.821 37.321C150.654 37.321 149.699 36.2968 149.262 35.4019L146.02 36.1875C146.676 38.3252 148.874 40.0454 152.762 40.0454ZM152.792 30.9573C150.415 30.9573 149.162 29.1079 149.162 26.294C149.162 23.5198 150.395 21.4815 152.792 21.4815C155.108 21.4815 156.381 23.4005 156.381 26.294C156.381 29.2073 155.088 30.9573 152.792 30.9573Z" fill="white"/>
</svg>
