<svg width="33" height="33" viewBox="0 0 33 33" fill="none" xmlns="http://www.w3.org/2000/svg">
<path d="M19.0125 13.8232L18.7768 13.7245C18.3921 13.5614 17.9903 13.4787 17.5845 13.4787C16.4122 13.4787 15.3356 14.1595 14.818 15.1998H18.7285L18.4868 16.367H14.5008C14.4967 16.4334 14.4927 16.502 14.4927 16.5694C14.4927 16.7366 14.5078 16.9068 14.537 17.078H18.3438L18.1032 18.2443H14.9913C15.5583 19.1265 16.5251 19.6622 17.5845 19.6622C17.9451 19.6622 18.3056 19.5958 18.6561 19.4648L18.936 19.3601V21.0036L18.783 21.0439C18.3892 21.1506 17.9854 21.205 17.5845 21.205C15.6771 21.205 13.959 20.0207 13.2692 18.2442H12.2812V17.078H12.9822C12.961 16.8987 12.95 16.7315 12.95 16.5694C12.95 16.5029 12.9519 16.4334 12.955 16.3669H12.2812V15.1998H13.1625C13.7617 13.2702 15.5563 11.9348 17.5845 11.9348C18.1233 11.9348 18.653 12.0295 19.1596 12.2138L19.3278 12.2762L19.0125 13.8232Z" fill="url(#paint0_linear_20_303)"/>
<path d="M16.5 0C7.38794 0 0 7.38691 0 16.5C0 25.6121 7.38794 33 16.5 33C25.6131 33 33 25.6121 33 16.5C33 7.38691 25.6131 0 16.5 0ZM31.298 16.5C31.298 18.5252 30.8892 20.4568 30.149 22.2162L27.312 21.041C27.9001 19.6431 28.2265 18.1094 28.2265 16.5001C28.2265 16.4789 28.2254 16.4578 28.2254 16.4366L31.297 16.4355C31.297 16.4577 31.298 16.4789 31.298 16.5ZM16.5 27.1952C10.6025 27.1952 5.80484 22.3975 5.80484 16.5C5.80484 10.6025 10.6025 5.80484 16.5 5.80484C22.3975 5.80484 27.1952 10.6025 27.1952 16.5C27.1952 22.3975 22.3975 27.1952 16.5 27.1952ZM1.70195 16.5C1.70195 14.4737 2.11084 12.5432 2.85205 10.7828L5.68902 11.9581C5.09985 13.3559 4.77359 14.8907 4.77359 16.5C4.77359 16.5211 4.77462 16.5413 4.77462 16.5625H1.70298C1.70298 16.5423 1.70195 16.5211 1.70195 16.5ZM30.1862 10.8775L27.3483 12.0527C26.746 10.5895 25.8578 9.27422 24.751 8.17749L26.9223 6.00619C28.3121 7.38594 29.4279 9.03955 30.1862 10.8775ZM22.2162 2.85102L21.0399 5.68799C19.6431 5.09985 18.1093 4.77359 16.5 4.77359C16.4789 4.77359 16.4577 4.77462 16.4375 4.77462V1.70298C16.4577 1.70298 16.4789 1.70195 16.5 1.70195C18.5252 1.70195 20.4558 2.11084 22.2162 2.85102ZM10.8775 2.81377L12.0527 5.65177C10.5904 6.25402 9.27422 7.14224 8.17749 8.248L6.00626 6.0767C7.38594 4.68793 9.03955 3.57212 10.8775 2.81377ZM2.81377 22.1215L5.65177 20.9473C6.25402 22.4096 7.14224 23.7248 8.248 24.8225L6.0767 26.9938C4.68697 25.6141 3.57109 23.9604 2.81377 22.1215ZM10.7828 30.1479L11.9581 27.311C13.3559 27.9001 14.8907 28.2264 16.5 28.2264C16.5211 28.2264 16.5423 28.2254 16.5625 28.2254V31.297C16.5423 31.297 16.5211 31.298 16.5 31.298C14.4738 31.298 12.5422 30.8892 10.7828 30.1479ZM22.1225 30.1862L20.9473 27.3483C22.4096 26.746 23.7258 25.8578 24.8225 24.7521L26.9938 26.9234C25.6141 28.3121 23.9604 29.4279 22.1225 30.1862Z" fill="url(#paint1_linear_20_303)"/>
<path d="M8.86109 18.9412C8.79058 18.7217 8.58717 18.5826 8.36964 18.5826C8.31724 18.5826 8.2649 18.5907 8.2125 18.6068C7.94057 18.6944 7.79156 18.9835 7.87812 19.2554C7.9204 19.3853 7.96474 19.5142 8.01109 19.6421L8.01308 19.6441L8.01914 19.6602V19.6613L8.02017 19.6643L8.02121 19.6673V19.6684L8.02623 19.6805L8.02726 19.6835V19.6845L8.02926 19.6865V19.6876V19.6896L8.03029 19.6906L8.03132 19.6936L8.03435 19.7027L8.03538 19.7037V19.7048L8.03642 19.7068L8.03745 19.7088V19.7108L8.03848 19.7128L8.03951 19.7138V19.7158L8.04054 19.7168L8.04157 19.7209L8.0426 19.7229L8.04364 19.7249V19.7259L8.04467 19.7279L8.0457 19.7289V19.7309L8.04673 19.7329L8.04776 19.7349V19.7369L8.04879 19.7389L8.04982 19.7409V19.7429L8.05182 19.7449V19.7469L8.05285 19.7489L8.05388 19.7509V19.752L8.05491 19.7539L8.05595 19.7559V19.757L8.05698 19.759L8.05801 19.761L8.06001 19.768V19.769L8.062 19.771V19.773L8.06304 19.775L8.06407 19.7761V19.7791H8.0651L8.06613 19.7831L8.06916 19.7912H8.07019V19.7942L8.07122 19.7953L8.07225 19.7973V19.7983L8.07425 19.8013V19.8024L8.08128 19.8205V19.8215C8.26155 20.2767 8.47805 20.7148 8.72684 21.1307C8.82352 21.2929 8.99471 21.3825 9.16995 21.3825C9.26057 21.3825 9.35126 21.3583 9.43382 21.3089C9.67855 21.1629 9.75809 20.8467 9.6121 20.602C9.29815 20.0782 9.0464 19.5193 8.86109 18.9412Z" fill="url(#paint2_linear_20_303)"/>
<path d="M11.8003 10.0064C12.0309 9.83917 12.0812 9.51593 11.9141 9.28526C11.8133 9.14629 11.6563 9.07275 11.4971 9.07275C11.3924 9.07275 11.2857 9.10498 11.195 9.17143L11.193 9.17246L11.191 9.17349L11.19 9.17453L11.1889 9.17556L11.1869 9.17659L11.1849 9.17762L11.1829 9.17962L11.1809 9.18065L11.1799 9.18265H11.1789L11.1769 9.18465H11.1749L11.1738 9.18664H11.1728L11.1708 9.18864H11.1698L11.1628 9.1947L11.1608 9.1967H11.1588L11.1568 9.19869L11.1548 9.20069H11.1537C10.6119 9.59953 10.1155 10.0567 9.67434 10.5623C9.48903 10.7768 9.51121 11.1021 9.72571 11.2884C9.82342 11.374 9.94427 11.4153 10.0641 11.4153C10.2081 11.4153 10.3511 11.3559 10.4538 11.2391C10.8546 10.7788 11.3078 10.3639 11.8003 10.0064Z" fill="url(#paint3_linear_20_303)"/>
<path d="M13.328 23.8657C12.771 23.625 12.2383 23.3189 11.7478 22.9563C11.6551 22.8888 11.5484 22.8556 11.4417 22.8556C11.2836 22.8556 11.1275 22.9281 11.0267 23.0651C10.8575 23.2937 10.9059 23.617 11.1355 23.7862C11.4719 24.0349 11.8284 24.2615 12.199 24.4629L12.203 24.464V24.465L12.2061 24.466L12.2172 24.4721L12.2192 24.4741H12.2212L12.2232 24.4761H12.2242L12.2342 24.4821H12.2353L12.2373 24.4841H12.2383L12.2413 24.4861L12.2454 24.4881L12.2524 24.4912V24.4921L12.2555 24.4931L12.2565 24.4942L12.2595 24.4952L12.2625 24.4962L12.2636 24.4973L12.2656 24.4983L12.2666 24.4993L12.2736 24.5024V24.5034L12.2767 24.5044L12.2777 24.5055L12.2807 24.5065H12.2817L12.2837 24.5085H12.2848L12.2918 24.5126L12.2948 24.5145H12.2959L12.2979 24.5165H12.2999L12.3019 24.5176L12.3029 24.5186L12.3049 24.5196L12.3059 24.5207L12.3129 24.5237L12.314 24.5247L12.316 24.5258L12.318 24.5268H12.32L12.321 24.5278L12.323 24.5289L12.324 24.5299L12.326 24.5309H12.328L12.33 24.5329L12.332 24.5339L12.334 24.535L12.336 24.536L12.338 24.537H12.339L12.3401 24.539H12.3421L12.3441 24.541H12.3461L12.3481 24.5421L12.3491 24.5431L12.3521 24.5451H12.3532L12.3562 24.5461V24.5472L12.3582 24.5482L12.3602 24.5492H12.3622L12.3642 24.5503L12.3662 24.5513V24.5523L12.3702 24.5534L12.3713 24.5544L12.3733 24.5554L12.3743 24.5564L12.3763 24.5575L12.3783 24.5585L12.3803 24.5595H12.3813L12.3844 24.5615L12.3874 24.5626L12.3884 24.5636L12.3904 24.5646L12.3934 24.5657L12.3945 24.5667L12.3965 24.5677L12.3985 24.5688L12.4005 24.5698H12.4015L12.4035 24.5718H12.4045L12.4065 24.5728L12.4085 24.5738L12.4126 24.5758L12.4146 24.5778H12.4166L12.4186 24.5789L12.4196 24.5799L12.4216 24.5809H12.4226L12.4246 24.582L12.4266 24.583L12.4286 24.584L12.4306 24.586H12.4326L12.4346 24.5871L12.4366 24.5881L12.4377 24.5891L12.4397 24.5902H12.4407L12.4427 24.5922H12.4447L12.4467 24.5932V24.5942L12.4547 24.5972L12.4558 24.5983L12.4578 24.5993L12.4588 24.6003H12.4608L12.4628 24.6014L12.4648 24.6024L12.4658 24.6034L12.4678 24.6045H12.4689L12.4729 24.6065L12.4749 24.6075L12.4759 24.6085H12.477L12.479 24.6105H12.481L12.483 24.6116L12.484 24.6126L12.486 24.6136L12.487 24.6146L12.4931 24.6166L12.4951 24.6177V24.6187H12.4971L12.4991 24.6197L12.5011 24.6208L12.5031 24.6218L12.5041 24.6228H12.5051L12.5132 24.6269H12.5142L12.5162 24.6289H12.5173L12.5193 24.6299L12.5213 24.631L12.5233 24.632L12.5243 24.633H12.5253L12.5273 24.634L12.5293 24.6351L12.5313 24.6371H12.5343L12.5354 24.6381L12.5374 24.6391L12.5394 24.6402L12.5414 24.6412H12.5424L12.5444 24.6432H12.5454L12.5474 24.6442L12.5494 24.6453L12.5525 24.6473H12.5535L12.5555 24.6483L12.5575 24.6493H12.5595L12.5615 24.6504L12.5625 24.6514L12.5635 24.6524L12.5655 24.6534H12.5676L12.5696 24.6554H12.5716L12.5736 24.6574H12.5756L12.5776 24.6585L12.5796 24.6595L12.5806 24.6605L12.5826 24.6616H12.5836L12.5856 24.6636H12.5876L12.5896 24.6646L12.5916 24.6656L12.5936 24.6667L12.5956 24.6677L12.5976 24.6687L12.5996 24.6698H12.6016L12.6027 24.6717H12.6037L12.6057 24.6728L12.6077 24.6738H12.6097L12.6117 24.6758L12.6137 24.6768L12.6157 24.6779H12.6177L12.6197 24.6789L12.6217 24.6799V24.681L12.6237 24.682H12.6257L12.6277 24.683L12.6297 24.6841L12.6317 24.6851L12.6337 24.6861L12.6357 24.6872L12.6377 24.6882L12.6397 24.6892L12.6407 24.6902H12.6427L12.6437 24.6913L12.6457 24.6923L12.6477 24.6933L12.6497 24.6944H12.6517L12.6527 24.6954L12.6558 24.6964L12.6578 24.6975L12.6598 24.6985L12.6608 24.6995L12.6628 24.7006H12.6638L12.6658 24.7026H12.6678L12.6698 24.7036L12.6718 24.7046L12.6738 24.7057L12.6758 24.7067L12.6778 24.7077L12.6798 24.7087H12.6808L12.6828 24.7098L12.6839 24.7108L12.6859 24.7118L12.6879 24.7129H12.6899L12.6919 24.7139L12.6929 24.7149L12.6959 24.7169H12.6979L12.6999 24.718L12.701 24.719H12.7029L12.704 24.72L12.706 24.7211L12.708 24.7221L12.71 24.7231H12.712L12.718 24.7272H12.7191L12.7221 24.7282V24.7292L12.7251 24.7303H12.7262L12.7281 24.7313L12.7301 24.7323L12.7321 24.7334H12.7332L12.7362 24.7354H12.7372L12.7403 24.7374H12.7413L12.7443 24.7384V24.7394L12.7474 24.7405H12.7484L12.7514 24.7415L12.7524 24.7425L12.7544 24.7436H12.7555L12.7625 24.7476L12.7666 24.7486V24.7497L12.7696 24.7507H12.7706L12.7847 24.7577L12.7888 24.7588V24.7598L12.7918 24.7608H12.7929L12.7999 24.7639L12.8029 24.7659L12.807 24.7679L12.811 24.7689V24.7699L12.8151 24.7709L12.8292 24.778L12.9178 24.8163C12.9853 24.8455 13.0548 24.8585 13.1233 24.8585C13.3227 24.8585 13.512 24.7427 13.5967 24.5483C13.7096 24.2826 13.5888 23.9785 13.328 23.8657Z" fill="url(#paint4_linear_20_303)"/>
<path d="M24.996 16.8142C24.7332 16.8142 24.5096 17.0136 24.4834 17.2805C24.425 17.8877 24.2961 18.487 24.1017 19.062C24.0101 19.3319 24.1551 19.624 24.425 19.7156C24.4794 19.7348 24.5358 19.7428 24.5902 19.7428C24.8057 19.7428 25.0061 19.6079 25.0786 19.3923L25.0797 19.3903V19.3873L25.0807 19.3863L25.0817 19.3843V19.3823L25.0828 19.3803L25.0838 19.3792V19.3773V19.3762L25.0858 19.3722V19.3702L25.0868 19.3682L25.0878 19.3662V19.3642V19.3631L25.0898 19.3611V19.3601V19.3581L25.0909 19.3561L25.0919 19.3541V19.3531L25.0949 19.345V19.344L25.096 19.342V19.34L25.097 19.338L25.098 19.337V19.335V19.3339L25.1 19.3319V19.3299V19.3279L25.1011 19.3269L25.1041 19.3189V19.3178V19.3158L25.1051 19.3138L25.1061 19.3118V19.3108V19.3088L25.1081 19.3068V19.3058V19.3037L25.1092 19.3017L25.1102 19.2997V19.2977L25.1122 19.2947V19.2937V19.2917L25.1132 19.2897L25.1143 19.2877V19.2857V19.2837L25.1163 19.2826V19.2806V19.2786L25.1173 19.2776L25.1183 19.2756V19.2736L25.1194 19.2716L25.1204 19.2676L25.1214 19.2645L25.1225 19.2635V19.2615V19.2595L25.1235 19.2575L25.1245 19.2555V19.2535L25.1255 19.2525L25.1266 19.2505V19.2494V19.2464L25.1276 19.2454L25.1286 19.2413L25.1306 19.2383V19.2373V19.2342L25.1317 19.2332L25.1327 19.2312V19.2292L25.1337 19.2272V19.2262L25.1348 19.2231V19.2221L25.1368 19.2191L25.1388 19.211L25.1398 19.207L25.1408 19.2039V19.2029L25.1419 19.1999L25.1429 19.1988V19.1958L25.1469 19.1847V19.1837L25.148 19.1807H25.149V19.1766L25.151 19.1736V19.1725V19.1685L25.1551 19.1584V19.1574L25.1571 19.1544V19.1533V19.1503V19.1493L25.1591 19.1463V19.1426H25.1601L25.1631 19.1315V19.1305L25.1651 19.1274V19.1264V19.1244V19.1234L25.1671 19.1203V19.1193L25.1712 19.1042L25.1732 19.1002V19.0971V19.0961L25.1812 19.0739L25.1832 19.0659L25.1893 19.0478V19.0437L25.1954 19.0235L25.1964 19.0205V19.0195L25.1974 19.0164C25.3505 18.4887 25.4572 17.9419 25.5116 17.3799C25.5378 17.0959 25.3303 16.8441 25.0474 16.817L24.996 16.8142Z" fill="url(#paint5_linear_20_303)"/>
<path d="M7.99801 16.2523C8.26285 16.2523 8.48747 16.0509 8.51164 15.783C8.56604 15.1757 8.68888 14.5755 8.87921 13.9984C8.96887 13.7285 8.82179 13.4364 8.55089 13.3478C8.49752 13.3297 8.44313 13.3217 8.38873 13.3217C8.1732 13.3217 7.97178 13.4586 7.9003 13.6742C7.84087 13.8534 7.78854 14.0337 7.7402 14.217V14.22H7.73917L7.73814 14.2241V14.2271V14.2281L7.73414 14.2402V14.2412V14.2432L7.73311 14.2442L7.73208 14.2462V14.2482V14.2502L7.73105 14.2522L7.73002 14.2542V14.2552V14.2582L7.72802 14.2623V14.2643V14.2663L7.72699 14.2683L7.72595 14.2703V14.2723V14.2733L7.72492 14.2753L7.72389 14.2773V14.2793V14.2803L7.72286 14.2834V14.2844L7.72183 14.2864V14.2884L7.7208 14.2914V14.2924L7.71977 14.2955V14.2965L7.71874 14.2985V14.3005L7.7177 14.3025V14.3045V14.3065L7.71667 14.3075L7.71564 14.3106V14.3116L7.71364 14.3227L7.71165 14.3267V14.3308L7.70965 14.3349C7.64416 14.6027 7.58983 14.8757 7.54852 15.1526V15.1567H7.54748L7.54645 15.1608V15.1648L7.54542 15.1729L7.54439 15.1769V15.178V15.181V15.182L7.54336 15.1851V15.1861L7.54233 15.1891V15.1902V15.1921V15.1932V15.1962V15.1972L7.5413 15.2013L7.54078 15.2029V15.2049V15.2069V15.2089V15.2099L7.53975 15.2119V15.2139L7.53872 15.2159V15.2179V15.219V15.222V15.223L7.53672 15.2321V15.2331V15.2351V15.2362V15.2392L7.53569 15.2433L7.53466 15.2463V15.2473L7.53266 15.2645C7.51249 15.4065 7.49637 15.5495 7.48432 15.6935C7.46015 15.9765 7.66962 16.2262 7.95161 16.2504L7.99801 16.2523Z" fill="url(#paint6_linear_20_303)"/>
<path d="M24.652 14.4817C24.7023 14.4817 24.7547 14.4747 24.8051 14.4586C25.077 14.374 25.2301 14.085 25.1445 13.813C24.938 13.1504 24.657 12.5199 24.3116 11.9308C24.216 11.7677 24.0438 11.676 23.8665 11.676C23.7779 11.676 23.6882 11.6992 23.6067 11.7475C23.3609 11.8915 23.2784 12.2078 23.4224 12.4535C23.7316 12.9791 23.9794 13.5391 24.1606 14.1192C24.229 14.3407 24.4325 14.4817 24.652 14.4817Z" fill="url(#paint7_linear_20_303)"/>
<path d="M22.892 21.6361C22.75 21.6361 22.6081 21.6945 22.5063 21.8094C22.1025 22.2666 21.6453 22.6775 21.1498 23.032C20.9182 23.1972 20.8638 23.5194 21.03 23.751C21.1297 23.892 21.2888 23.9665 21.45 23.9665C21.5527 23.9665 21.6574 23.9363 21.7481 23.8719C22.1801 23.5637 22.5839 23.2173 22.9555 22.8396L22.9566 22.8385L22.9707 22.8244L22.9727 22.8224L22.9747 22.8204V22.8194L22.9817 22.8124L22.9837 22.8104H22.9847L22.9867 22.8084V22.8074L22.9887 22.8054V22.8043L22.9957 22.7983H22.9968L22.9978 22.7963L22.9988 22.7952L23.0008 22.7942V22.7922L23.0028 22.7912L23.0039 22.7901L23.0049 22.7881H23.0059L23.01 22.7841L23.011 22.7831V22.782L23.013 22.78L23.015 22.779V22.778L23.017 22.776L23.018 22.7749L23.0191 22.7739L23.0211 22.7719L23.0221 22.7709L23.0241 22.7689L23.0251 22.7678L23.0271 22.7658L23.0282 22.7648L23.0292 22.7628L23.0312 22.7618L23.0332 22.7598L23.0352 22.7578V22.7568L23.0382 22.7537H23.0392L23.0412 22.7507L23.0432 22.7477H23.0452L23.0472 22.7457V22.7446L23.0492 22.7416L23.0573 22.7336L23.0603 22.7305L23.0614 22.7295L23.0633 22.7275C23.1359 22.6509 23.2084 22.5724 23.2789 22.4928C23.4672 22.2803 23.4481 21.9541 23.2345 21.7647C23.1358 21.6784 23.0139 21.6361 22.892 21.6361Z" fill="url(#paint8_linear_20_303)"/>
<path d="M18.3632 24.3149L18.2504 24.328C17.6794 24.4549 17.0902 24.5204 16.5001 24.5204L16.4356 24.5193H16.4337C16.1497 24.5193 15.918 24.749 15.916 25.033C15.914 25.316 16.1416 25.5475 16.4236 25.5506H16.4277L16.4458 25.5516H16.4468H16.4498H16.4518H16.4538H16.471H16.4841H16.4861H16.4881H16.49H16.492H16.494H16.496H16.5001H16.5042H16.5062H16.5082H16.5092H16.5122H16.5133H16.5152H16.5172H16.5192H16.5203H16.5233H16.5243H16.5274H16.5284H16.5304H16.5324H16.5344H16.5364H16.5384H16.5404H16.5484H16.5515H16.5525H16.5555H16.5566L16.5596 25.5506H16.5606H16.5626H16.5646H16.5666H16.5686H16.5705H16.5725H16.5745H16.5765H16.5785H16.5805H16.5825H16.5836H16.5866H16.5876H16.5907H16.5927H16.5947H16.5967H16.5987H16.6006H16.6026H16.6046H16.6066H16.6086H16.6106H16.6126H16.6146H16.6157H16.6187H16.6197H16.6217L16.6228 25.5495H16.6248H16.6268H16.629H16.631H16.634H16.6351H16.6391H16.6432H16.6442H16.6472H16.6503H16.6513H16.6543H16.6554H16.6574H16.6594H16.6614H16.6634H16.6654H16.6674H16.6694H16.6714H16.6734H16.6754H16.6864H16.6895H16.6915H16.6935H16.6955H16.6975H16.6995L16.7015 25.5485H16.7035H16.7055H16.7074H16.7094H16.7105H16.7135H16.7176H16.7216L16.7377 25.5475H16.7418H16.7459H16.7499H16.753H16.754H16.757H16.7579H16.7609H16.762H16.765H16.766H16.7691H16.7701L16.7812 25.5464H16.7822H16.7842H16.7862H16.7882H16.7902H16.7922H16.7942H16.7962H16.7972L16.8003 25.5454H16.8013H16.8043H16.8054H16.8084H16.8124H16.8286H16.8326H16.8367L16.8407 25.5444H16.8448H16.8489L16.8791 25.5434H16.8801H16.8831H16.8842H16.8868H16.8879L16.8909 25.5423H16.8949C17.3884 25.5212 17.8708 25.4607 18.3401 25.3631H18.3411L18.3442 25.362H18.3452H18.3472L18.3482 25.361L18.3513 25.36H18.3523H18.3553L18.3584 25.359H18.3594L18.3624 25.3579H18.3634H18.3665H18.3675L18.3705 25.3559H18.3716H18.3736H18.3756L18.3776 25.3549H18.3796L18.3816 25.3539H18.3836H18.3846L18.3866 25.3528H18.3886L18.3896 25.3518H18.3916H18.3936H18.3956L18.3976 25.3508L18.3996 25.3497H18.4016H18.4026H18.4046L18.4057 25.3487L18.4218 25.3457L18.4248 25.3446H18.4258L18.4278 25.3436H18.4298H18.4318H18.4329L18.4359 25.3426V25.3416H18.4389H18.4399L18.4762 25.3335C18.7532 25.271 18.9274 24.9951 18.866 24.7182C18.8124 24.4781 18.5989 24.3149 18.3632 24.3149Z" fill="url(#paint9_linear_20_303)"/>
<path d="M21.6112 10.1855C21.7684 10.1855 21.9235 10.113 22.0241 9.97801C22.1953 9.75042 22.149 9.42816 21.9214 9.25691C21.8549 9.20657 21.7884 9.15823 21.72 9.10989L21.718 9.10789H21.7169L21.7139 9.10589L21.7039 9.09887V9.09784L21.7008 9.09584H21.6998L21.6978 9.09384L21.6878 9.08778V9.08675L21.6847 9.08475H21.6837L21.6817 9.08275L21.6807 9.08172L21.6776 9.08069V9.07966L21.6746 9.07766L21.6716 9.07566L21.6675 9.07367V9.07263L21.6655 9.0716L21.6635 9.07057L21.6615 9.06954V9.06851L21.6595 9.06748L21.6575 9.06548L21.6555 9.06361H21.6545L21.6515 9.06161H21.6504L21.6484 9.05962H21.6474L21.6454 9.05762H21.6444L21.6424 9.05562L21.6413 9.05459L21.6393 9.05356L21.6373 9.05253L21.6354 9.05053L21.6334 9.0495L21.6314 9.04847V9.04743L21.6294 9.0464L21.6274 9.04537L21.6254 9.04434L21.6243 9.04331L21.6233 9.04131H21.6213V9.04028L21.6152 9.03725L21.6132 9.03525H21.6122L21.6112 9.03325H21.6092L21.6072 9.03126L21.6052 9.02926H21.6032L21.6012 9.02726L21.5961 9.02333H21.5951L21.5931 9.02133L21.5911 9.01933H21.59L21.587 9.01733L21.5729 9.00825L21.5709 9.00625L21.5679 9.00425H21.5668L21.5568 8.99722L21.5538 8.99523H21.5527L21.5507 8.99323L21.5336 8.98111C21.0965 8.68701 20.6323 8.43126 20.1448 8.21573C20.0784 8.1855 20.0068 8.17139 19.9373 8.17139C19.7399 8.17139 19.5506 8.28618 19.466 8.47954C19.3512 8.73935 19.468 9.04453 19.7288 9.15932C20.2847 9.40508 20.8134 9.71523 21.3029 10.0818C21.3957 10.1513 21.5044 10.1855 21.6112 10.1855Z" fill="url(#paint10_linear_20_303)"/>
<path d="M16.6274 8.48168H16.6315C16.9145 8.48168 17.146 8.25306 17.1511 7.97005C17.1562 7.68807 16.9326 7.45642 16.6527 7.45036L16.5328 7.44836H16.5317H16.5297H16.5277H16.5258H16.5238H16.5218H16.5198H16.5157H16.5137H16.5117H16.5097H16.5077H16.5057H16.5037H16.4995H16.4895H16.4875H16.4864H16.4834H16.4814H16.4794H16.4784H16.4753H16.4743H16.4713H16.4703H16.4673H16.4653H16.4633H16.4613H16.4593H16.4573H16.4553H16.4533H16.4513H16.4493H16.4473H16.4453H16.4433H16.4413L16.4393 7.4494H16.4373H16.4333H16.4302H16.4292H16.4262H16.4251H16.4221H16.4211H16.418H16.417H16.414H16.413H16.4099H16.4089H16.4059H16.4048H16.4008H16.3988H16.3968H16.3957H16.3927H16.3907H16.3887H16.3867H16.3847H16.3837H16.3807H16.3796H16.3776L16.3756 7.45043H16.3736H16.3716H16.3696H16.3666H16.3646H16.3626H16.3606H16.3586H16.3566H16.3546H16.3526H16.3506H16.3486H16.3466H16.3446H16.3426H16.3406H16.3384H16.3354H16.3343H16.3313H16.3303H16.3272H16.3262H16.3232H16.3221H16.3201H16.3181H16.3161H16.3142H16.3122H16.3102H16.3082H16.3041H16.3021H16.3001H16.2981L16.2961 7.45146H16.2941H16.2931H16.2911H16.2891H16.2871H16.2851H16.2831H16.2821H16.279H16.278H16.2739L16.2699 7.45249H16.2679H16.2659H16.2639H16.2619H16.2599H16.2579H16.2559H16.2539H16.2519H16.2499H16.2479H16.2469H16.2449H16.2438H16.2378H16.2347H16.2337H16.2317H16.2297H16.2277H16.2257H16.2237H16.2217L16.2197 7.45352H16.2177H16.2157H16.2137H16.2117H16.2077H16.2066H16.2046H16.2016L16.2006 7.45455H16.1986H16.1976H16.1945H16.1935H16.1915H16.1895H16.1875H16.1855H16.1835H16.1815H16.1795H16.1785H16.1724H16.1714H16.1694H16.1684H16.1653H16.1643H16.1613V7.45558H16.1582H16.1572H16.1542H16.1531H16.1511H16.1492L16.1401 7.45661H16.139H16.137H16.135H16.133H16.131H16.129H16.128H16.125H16.1239H16.1209H16.1179H16.1169L16.1038 7.45765H16.1027H16.1007H16.0987H16.0968L16.0948 7.45868H16.0928H16.0917H16.0887H16.0706H16.0676H16.0665L16.0645 7.45971H16.0625H16.0605H16.0585H16.0565H16.0555L16.0424 7.46074H16.0384H16.0353H16.0343H16.0313H16.0302H16.0282H16.0262L16.0242 7.46177H16.0232L16.0061 7.4628H16.002H15.9979H15.9949H15.9939L15.9737 7.4648H15.9696H15.9656H15.9615L15.9333 7.4668C15.4277 7.49799 14.9332 7.57153 14.4529 7.68233C14.1769 7.74678 14.0037 8.02374 14.0682 8.30069C14.1235 8.53936 14.336 8.7005 14.5697 8.7005L14.6865 8.68741C15.2777 8.55045 15.887 8.47994 16.4993 8.47994L16.6274 8.48168Z" fill="url(#paint11_linear_20_303)"/>
<defs>
<linearGradient id="paint0_linear_20_303" x1="15.8045" y1="11.9348" x2="15.8045" y2="21.205" gradientUnits="userSpaceOnUse">
<stop stop-color="#1AB8F9"/>
<stop offset="1" stop-color="#2B5BE1"/>
</linearGradient>
<linearGradient id="paint1_linear_20_303" x1="16.5" y1="0" x2="16.5" y2="33" gradientUnits="userSpaceOnUse">
<stop stop-color="#1AB8F9"/>
<stop offset="1" stop-color="#2B5BE1"/>
</linearGradient>
<linearGradient id="paint2_linear_20_303" x1="8.76934" y1="18.5826" x2="8.76934" y2="21.3825" gradientUnits="userSpaceOnUse">
<stop stop-color="#1AB8F9"/>
<stop offset="1" stop-color="#2B5BE1"/>
</linearGradient>
<linearGradient id="paint3_linear_20_303" x1="10.7807" y1="9.07275" x2="10.7807" y2="11.4153" gradientUnits="userSpaceOnUse">
<stop stop-color="#1AB8F9"/>
<stop offset="1" stop-color="#2B5BE1"/>
</linearGradient>
<linearGradient id="paint4_linear_20_303" x1="12.2824" y1="22.8556" x2="12.2824" y2="24.8585" gradientUnits="userSpaceOnUse">
<stop stop-color="#1AB8F9"/>
<stop offset="1" stop-color="#2B5BE1"/>
</linearGradient>
<linearGradient id="paint5_linear_20_303" x1="24.794" y1="16.8142" x2="24.794" y2="19.7428" gradientUnits="userSpaceOnUse">
<stop stop-color="#1AB8F9"/>
<stop offset="1" stop-color="#2B5BE1"/>
</linearGradient>
<linearGradient id="paint6_linear_20_303" x1="8.19396" y1="13.3217" x2="8.19396" y2="16.2523" gradientUnits="userSpaceOnUse">
<stop stop-color="#1AB8F9"/>
<stop offset="1" stop-color="#2B5BE1"/>
</linearGradient>
<linearGradient id="paint7_linear_20_303" x1="24.2599" y1="11.676" x2="24.2599" y2="14.4817" gradientUnits="userSpaceOnUse">
<stop stop-color="#1AB8F9"/>
<stop offset="1" stop-color="#2B5BE1"/>
</linearGradient>
<linearGradient id="paint8_linear_20_303" x1="22.171" y1="21.6361" x2="22.171" y2="23.9665" gradientUnits="userSpaceOnUse">
<stop stop-color="#1AB8F9"/>
<stop offset="1" stop-color="#2B5BE1"/>
</linearGradient>
<linearGradient id="paint9_linear_20_303" x1="17.3972" y1="24.3149" x2="17.3972" y2="25.5516" gradientUnits="userSpaceOnUse">
<stop stop-color="#1AB8F9"/>
<stop offset="1" stop-color="#2B5BE1"/>
</linearGradient>
<linearGradient id="paint10_linear_20_303" x1="20.7747" y1="8.17139" x2="20.7747" y2="10.1855" gradientUnits="userSpaceOnUse">
<stop stop-color="#1AB8F9"/>
<stop offset="1" stop-color="#2B5BE1"/>
</linearGradient>
<linearGradient id="paint11_linear_20_303" x1="15.603" y1="7.44836" x2="15.603" y2="8.7005" gradientUnits="userSpaceOnUse">
<stop stop-color="#1AB8F9"/>
<stop offset="1" stop-color="#2B5BE1"/>
</linearGradient>
</defs>
</svg>
