<svg width="26" height="35" viewBox="0 0 26 35" fill="none" xmlns="http://www.w3.org/2000/svg">
<path d="M18.3031 4.77344C18.3031 4.77344 18.6123 3.94542 20.2776 2.89434C21.8756 1.88682 20.6491 0.494352 18.3031 1.00694C16.6835 1.35976 17.2334 0.199707 14.9621 0.199707C12.6908 0.199707 13.2407 1.35976 11.621 1.00694C9.27498 0.494352 8.04853 1.88682 9.64646 2.89434C11.3118 3.94542 11.621 4.77344 11.621 4.77344H18.3031Z" fill="url(#paint0_linear_20_328)"/>
<path d="M24.6915 15.1048C24.6915 14.6305 24.4103 14.2228 24.0056 14.035C24.4103 13.8462 24.6925 13.4394 24.6925 12.9653C24.6925 12.4901 24.4103 12.0823 24.0056 11.8945C24.4092 11.7067 24.6915 11.2999 24.6915 10.8237C24.6915 10.171 24.1623 9.64185 23.5086 9.64185H19.5657C18.9131 9.64185 18.3828 10.171 18.3828 10.8237C18.3828 11.2999 18.665 11.7067 19.0697 11.8945C18.665 12.0823 18.3828 12.4901 18.3828 12.9653C18.3828 13.4395 18.665 13.8462 19.0697 14.035C18.665 14.2228 18.3828 14.6306 18.3828 15.1048C18.3828 15.58 18.665 15.9878 19.0697 16.1745C18.665 16.3634 18.3828 16.7701 18.3828 17.2453C18.3828 17.899 18.913 18.4282 19.5657 18.4282H23.5086C24.1612 18.4282 24.6915 17.899 24.6915 17.2453C24.6915 16.7701 24.4092 16.3634 24.0056 16.1756C24.4092 15.9878 24.6915 15.58 24.6915 15.1048Z" fill="url(#paint1_linear_20_328)"/>
<path d="M18.9905 6.15247C17.6624 6.15247 11.47 6.15247 11.47 6.15247C8.21818 6.15247 7.30927 8.69768 4.79102 8.69768V16.7754L5.8919 16.7245C14.3048 16.0729 13.5701 8.80971 13.5701 8.80971C13.5701 8.80971 15.6329 8.80971 18.2912 8.80971C20.9485 8.80971 21.0886 6.15247 18.9905 6.15247Z" fill="url(#paint2_linear_20_328)"/>
<path d="M3.65457 7.75342H0.296875V18.6627H3.65457V7.75342Z" fill="url(#paint3_linear_20_328)"/>
<path d="M16.5797 24.689C16.8443 24.5022 16.9771 24.2065 16.9771 23.7998C16.9771 23.3785 16.8577 23.0787 16.6191 22.8991C16.3804 22.7206 16.0069 22.6304 15.4995 22.6304H14.4443V24.9692H15.4166C15.9271 24.9692 16.3151 24.8758 16.5797 24.689Z" fill="url(#paint4_linear_20_328)"/>
<path d="M16.9139 26.3151C16.7945 26.2165 16.642 26.1397 16.4553 26.0878C16.2685 26.036 16.0433 26.01 15.7787 26.01H14.4443V28.382H15.7839C16.0641 28.382 16.2975 28.3477 16.4863 28.2813C16.6741 28.2138 16.8256 28.1247 16.9388 28.0126C17.0529 27.9005 17.1349 27.7708 17.1847 27.6214C17.2355 27.4719 17.2604 27.3132 17.2604 27.1451C17.2604 26.9697 17.2324 26.812 17.1764 26.673C17.1214 26.533 17.0331 26.4136 16.9139 26.3151Z" fill="url(#paint5_linear_20_328)"/>
<path d="M24.7465 19.3475C24.3833 19.5613 23.961 19.6879 23.5086 19.6879H19.5657C18.2199 19.6879 17.1242 18.5922 17.1242 17.2454C17.1242 16.8687 17.2124 16.5035 17.3743 16.1756C17.2124 15.8477 17.1242 15.4825 17.1242 15.1048C17.1242 14.7282 17.2124 14.363 17.3743 14.0351C17.2124 13.7072 17.1242 13.342 17.1242 12.9654C17.1242 12.5876 17.2124 12.2224 17.3743 11.8946C17.2135 11.5667 17.1242 11.2014 17.1242 10.8238C17.1242 10.5602 17.1668 10.3071 17.2446 10.0695H14.8042C14.6911 11.3177 14.274 13.1999 12.9054 14.8383C11.4143 16.6209 9.19385 17.6626 6.31036 17.947C5.37237 19.7648 4.70312 21.7249 4.70312 23.6994C4.70312 29.4985 9.40449 34.1999 15.2025 34.1999C21.0017 34.1999 25.703 29.4985 25.703 23.6994C25.7031 22.2217 25.3264 20.7545 24.7465 19.3475ZM18.7408 28.1298C18.6101 28.4214 18.4202 28.6714 18.1701 28.8831C17.9211 29.0937 17.6129 29.2587 17.2467 29.378C16.8825 29.4973 16.4643 29.5565 15.9943 29.5565H15.8294V30.3752H14.551V29.5565H12.9396H12.4115V28.8997C12.4115 28.7056 12.399 28.5894 12.5848 28.549C12.6014 28.5459 12.6252 28.5427 12.6553 28.5365C12.6865 28.5303 12.7415 28.521 12.8224 28.5064C12.9023 28.4919 12.7996 28.4722 12.9397 28.4473V22.5755C12.7996 22.5516 12.9023 22.5319 12.8224 22.5174C12.7415 22.5018 12.6865 22.4935 12.6553 22.4873C12.6253 22.4821 12.6014 22.4769 12.5848 22.4748C12.399 22.4354 12.4115 22.3182 12.4115 22.1241V21.4673H12.9396H14.551V20.5926H15.8294V21.4745C16.2195 21.4911 16.5619 21.5389 16.8555 21.6177C17.2311 21.7184 17.5393 21.8626 17.779 22.0493C18.0197 22.2351 18.1961 22.4603 18.3071 22.7259C18.4202 22.9905 18.4752 23.2883 18.4752 23.6203C18.4752 23.8112 18.4482 23.9928 18.3922 24.1661C18.3351 24.3394 18.249 24.5023 18.1317 24.6538C18.0135 24.8043 17.865 24.9412 17.6835 25.0647C17.5029 25.1872 17.2695 25.3781 17.2695 25.3781C18.3808 25.6271 18.9369 26.2279 18.9369 27.1794C18.9369 27.5218 18.8716 27.8392 18.7408 28.1298Z" fill="url(#paint6_linear_20_328)"/>
<defs>
<linearGradient id="paint0_linear_20_328" x1="14.962" y1="0.199707" x2="14.962" y2="4.77344" gradientUnits="userSpaceOnUse">
<stop stop-color="#1AB8F9"/>
<stop offset="1" stop-color="#2B5BE1"/>
</linearGradient>
<linearGradient id="paint1_linear_20_328" x1="21.5377" y1="9.64185" x2="21.5377" y2="18.4282" gradientUnits="userSpaceOnUse">
<stop stop-color="#1AB8F9"/>
<stop offset="1" stop-color="#2B5BE1"/>
</linearGradient>
<linearGradient id="paint2_linear_20_328" x1="12.6145" y1="6.15247" x2="12.6145" y2="16.7754" gradientUnits="userSpaceOnUse">
<stop stop-color="#1AB8F9"/>
<stop offset="1" stop-color="#2B5BE1"/>
</linearGradient>
<linearGradient id="paint3_linear_20_328" x1="1.97572" y1="7.75342" x2="1.97572" y2="18.6627" gradientUnits="userSpaceOnUse">
<stop stop-color="#1AB8F9"/>
<stop offset="1" stop-color="#2B5BE1"/>
</linearGradient>
<linearGradient id="paint4_linear_20_328" x1="15.7107" y1="22.6304" x2="15.7107" y2="24.9692" gradientUnits="userSpaceOnUse">
<stop stop-color="#1AB8F9"/>
<stop offset="1" stop-color="#2B5BE1"/>
</linearGradient>
<linearGradient id="paint5_linear_20_328" x1="15.8524" y1="26.01" x2="15.8524" y2="28.382" gradientUnits="userSpaceOnUse">
<stop stop-color="#1AB8F9"/>
<stop offset="1" stop-color="#2B5BE1"/>
</linearGradient>
<linearGradient id="paint6_linear_20_328" x1="15.2031" y1="10.0695" x2="15.2031" y2="34.1999" gradientUnits="userSpaceOnUse">
<stop stop-color="#1AB8F9"/>
<stop offset="1" stop-color="#2B5BE1"/>
</linearGradient>
</defs>
</svg>
