<svg width="30" height="28" viewBox="0 0 30 28" fill="none" xmlns="http://www.w3.org/2000/svg">
<path d="M30.0001 5.12639C30.0001 2.31749 26.2386 0.199707 21.25 0.199707C16.2615 0.199707 12.5 2.31749 12.5 5.12639C12.5 5.15134 12.5055 5.17492 12.5062 5.19953H12.5V8.9494H14.9999V8.63973C16.5643 9.52191 18.7532 10.0524 21.25 10.0524C23.5534 10.0524 25.5885 9.59676 27.119 8.83421C27.3563 9.07962 27.5002 9.32367 27.5002 9.53763C27.5002 10.5032 25.0074 11.9637 21.25 11.9637H18.7508V14.4636H21.25C23.5538 14.4636 25.5895 14.008 27.1201 13.2451C27.3576 13.4902 27.4998 13.7342 27.4998 13.9492C27.4998 14.9155 25.0071 16.376 21.2497 16.376L20.3648 16.3801C19.821 16.3849 19.2943 16.39 18.7809 16.3763L18.7197 18.8752C18.9945 18.8821 19.2727 18.8844 19.5564 18.8844C19.8275 18.8844 20.1033 18.8827 20.3836 18.8803L21.2497 18.8762C23.5548 18.8762 25.5912 18.4199 27.1221 17.6564C27.3604 17.9035 27.4995 18.1489 27.4995 18.3612C27.4995 19.3274 25.0067 20.7879 21.2493 20.7879H18.7501V23.2878H21.2493C23.5544 23.2878 25.5905 22.8315 27.1218 22.068C27.3604 22.3147 27.4995 22.5601 27.4995 22.7727C27.4995 23.739 25.0067 25.1995 21.2493 25.1995H18.7501V27.6994H21.2493C26.2379 27.6994 29.9994 25.5816 29.9994 22.7727C29.9994 22.7495 29.9963 22.7232 29.9956 22.6996H29.9994V5.19953H29.9932C29.9943 5.17492 30.0001 5.15099 30.0001 5.12639ZM14.9999 5.12639C14.9999 4.16012 17.4926 2.69962 21.25 2.69962C25.0074 2.69962 27.5002 4.16012 27.5002 5.12639C27.5002 6.09197 25.0074 7.55247 21.25 7.55247C17.4926 7.55247 14.9999 6.09197 14.9999 5.12639Z" fill="url(#paint0_linear_20_339)"/>
<path d="M8.75003 8.94946C3.76149 8.94946 0 11.0672 0 13.8761C0 13.9011 0.00546878 13.9247 0.00615238 13.9493H0V22.6993C0 25.5082 3.76149 27.626 8.75003 27.626C13.7386 27.626 17.5001 25.5082 17.5001 22.6993V13.9496H17.4939C17.4946 13.925 17.5001 13.9011 17.5001 13.8765C17.5001 11.0676 13.7386 8.94946 8.75003 8.94946ZM2.49991 18.2881C2.49991 18.0721 2.64107 17.8284 2.87862 17.5833C4.40954 18.3465 6.44563 18.8025 8.75003 18.8025C11.0534 18.8025 13.0885 18.3469 14.619 17.5843C14.8563 17.8297 15.0002 18.0738 15.0002 18.2877C15.0002 19.2533 12.5074 20.7138 8.75003 20.7138C4.99264 20.7138 2.49991 19.2537 2.49991 18.2881ZM8.75003 11.4497C12.5074 11.4497 15.0002 12.9102 15.0002 13.8765C15.0002 14.8421 12.5074 16.3026 8.75003 16.3026C4.99264 16.3026 2.49991 14.8421 2.49991 13.8765C2.49991 12.9102 4.99264 11.4497 8.75003 11.4497ZM8.75003 25.1264C4.99264 25.1264 2.49991 23.6659 2.49991 22.6997C2.49991 22.4847 2.64244 22.2406 2.87965 21.9956C4.41056 22.7584 6.44597 23.2144 8.75003 23.2144C11.0538 23.2144 13.0895 22.7588 14.6201 21.9959C14.8576 22.241 14.9998 22.485 14.9998 22.7C15.0002 23.6659 12.5074 25.1264 8.75003 25.1264Z" fill="url(#paint1_linear_20_339)"/>
<defs>
<linearGradient id="paint0_linear_20_339" x1="21.25" y1="0.199707" x2="21.25" y2="27.6994" gradientUnits="userSpaceOnUse">
<stop stop-color="#1AB8F9"/>
<stop offset="1" stop-color="#2B5BE1"/>
</linearGradient>
<linearGradient id="paint1_linear_20_339" x1="8.75003" y1="8.94946" x2="8.75003" y2="27.626" gradientUnits="userSpaceOnUse">
<stop stop-color="#1AB8F9"/>
<stop offset="1" stop-color="#2B5BE1"/>
</linearGradient>
</defs>
</svg>
