<svg width="32" height="33" viewBox="0 0 32 33" fill="none" xmlns="http://www.w3.org/2000/svg">
<path d="M16.3556 0.199707C16.2421 0.199707 16.1281 0.226218 16.025 0.280263L1.09167 8.10249C0.857711 8.22551 0.711111 8.46851 0.711111 8.73304V10.1553C0.711111 10.5478 1.02969 10.8664 1.42222 10.8664H31.2889C31.6821 10.8664 32 10.5478 32 10.1553V8.73304C32 8.46851 31.8541 8.22551 31.6194 8.10249L16.6861 0.280263C16.583 0.226218 16.469 0.199707 16.3556 0.199707ZM16.3556 4.46637C17.5332 4.46637 18.4889 5.4214 18.4889 6.59971C18.4889 7.77802 17.5332 8.73304 16.3556 8.73304C15.1772 8.73304 14.2222 7.77802 14.2222 6.59971C14.2222 5.4214 15.1772 4.46637 16.3556 4.46637ZM4.26667 12.2886C3.87413 12.2886 3.55556 12.6072 3.55556 12.9997V22.9553H7.82222V12.9997C7.82222 12.6072 7.50364 12.2886 7.11111 12.2886H4.26667ZM11.3778 12.2886C10.9852 12.2886 10.6667 12.6072 10.6667 12.9997V22.9553H14.9333V12.9997C14.9333 12.6072 14.6148 12.2886 14.2222 12.2886H11.3778ZM18.4889 12.2886C18.0964 12.2886 17.7778 12.6072 17.7778 12.9997V22.9553H21.9403C20.9191 22.1069 20.2667 20.8283 20.2667 19.3997C20.2667 17.9242 20.9643 16.6105 22.0444 15.7636V12.9997C22.0444 12.6072 21.7259 12.2886 21.3333 12.2886H18.4889ZM25.6 12.2886C25.2075 12.2886 24.8889 12.6072 24.8889 12.9997V14.7775C26.8089 14.7775 28.458 15.9543 29.1556 17.6247V12.9997C29.1556 12.6072 28.837 12.2886 28.4444 12.2886H25.6ZM24.8889 16.1997C23.1246 16.1997 21.6889 17.6354 21.6889 19.3997C21.6889 21.164 23.1246 22.5997 24.8889 22.5997C26.6532 22.5997 28.0889 21.164 28.0889 19.3997C28.0889 17.6354 26.6532 16.1997 24.8889 16.1997ZM2.13333 24.3775C1.7408 24.3775 1.42222 24.6954 1.42222 25.0886V26.5108H0.711111C0.318578 26.5108 0 26.8287 0 27.2219V29.3553C0 29.7485 0.318578 30.0664 0.711111 30.0664H17.0667V28.3303C17.0667 26.7608 17.7546 25.3595 18.8319 24.3775H2.13333ZM22.4417 24.3775C20.2614 24.3775 18.4889 26.15 18.4889 28.3303V31.4886C18.4889 31.8818 18.8068 32.1997 19.2 32.1997H30.5778C30.971 32.1997 31.2889 31.8818 31.2889 31.4886V28.3303C31.2889 26.15 29.5157 24.3775 27.3361 24.3775H22.4417Z" fill="url(#paint0_linear_20_320)"/>
<defs>
<linearGradient id="paint0_linear_20_320" x1="16" y1="0.199707" x2="16" y2="32.1997" gradientUnits="userSpaceOnUse">
<stop stop-color="#1AB8F9"/>
<stop offset="1" stop-color="#2B5BE1"/>
</linearGradient>
</defs>
</svg>
